<?xml version="1.0" encoding="utf-8"?>
<!-- Generator: Adobe Illustrator 22.0.1, SVG Export Plug-In . SVG Version: 6.00 Build 0)  -->
<svg version="1.1" id="Layer_1" xmlns="http://www.w3.org/2000/svg" xmlns:xlink="http://www.w3.org/1999/xlink" x="0px" y="0px"
	 viewBox="0 0 512 512" style="enable-background:new 0 0 512 512;" xml:space="preserve">
<style type="text/css">
	.st0{fill:#C0C5C9;}
</style>
<path class="st0" d="M423.5,0H88.4C39.6,0,0,39.7,0,88.5v335C0,472.3,39.7,512,88.5,512h335c48.8,0,88.5-39.7,88.5-88.5v-335
	C512,39.7,472.3,0,423.5,0z M215.6,80.2l0.2,0.5h-1.3L215.6,80.2z M420,347.5l-3.8,7.1c-14.7,28.1-46.8,42.4-77.4,34.4
	c-47.6-12.9-94.1-39.1-129.9-75.9c-36.6-36.2-62.9-82.4-75.9-129.9c-8.3-30.6,6.4-62.7,34.4-77.4c3.1-1.5,5.8-3.1,8.6-4.6
	c8.6-4.6,19-1.8,24.2,6.4c9.3,14.1,22.5,34.6,38.5,58.9c4.8,7.3,3.8,17.2-2.5,23.6l-14.1,14.1c-7.1,7.1-9.1,18-4.8,27.3
	c14.9,32.7,41,58.7,73.6,73.6c9.1,4.3,20,2.3,27.3-4.8l12.9-12.9c6.4-6.4,15.9-7.3,23.6-2.5l59.4,38.7
	C421.7,328.5,424.5,338.8,420,347.5z"/>
</svg>
