<?xml version="1.0" encoding="utf-8"?>
<!-- Generator: Adobe Illustrator 22.0.1, SVG Export Plug-In . SVG Version: 6.00 Build 0)  -->
<svg version="1.1" id="Layer_1" xmlns="http://www.w3.org/2000/svg" xmlns:xlink="http://www.w3.org/1999/xlink" x="0px" y="0px"
	 viewBox="0 0 512 512" style="enable-background:new 0 0 512 512;" xml:space="preserve">
<style type="text/css">
	.st0{fill:#C0C5C9;}
</style>
<path class="st0" d="M423.4,0H88.5C39.7,0,0,39.7,0,88.5v335C0,472.3,39.7,512,88.5,512h335c48.8,0,88.5-39.7,88.5-88.5v-335
	C511.8,39.7,472.1,0,423.4,0z M438.3,255.9c0,100.6-81.7,182.3-182.3,182.3S73.6,356.6,73.6,255.9S155.3,73.6,255.9,73.6
	c60.6,0,117.1,30,151.2,80.4l-62.9,42.4c-20-29.4-52.8-47-88.3-47c-58.7,0-106.5,47.8-106.5,106.5s47.8,106.5,106.5,106.5
	c45.3,0,84.2-28.6,99.3-68.5h-99.3v-75.9h182.3v37.8H438.3z"/>
</svg>
