<?xml version="1.0" encoding="utf-8"?>
<!-- Generator: Adobe Illustrator 22.0.1, SVG Export Plug-In . SVG Version: 6.00 Build 0)  -->
<svg version="1.1" id="Layer_1" xmlns="http://www.w3.org/2000/svg" xmlns:xlink="http://www.w3.org/1999/xlink" x="0px" y="0px"
	 viewBox="0 0 512 512" style="enable-background:new 0 0 512 512;" xml:space="preserve">
<style type="text/css">
	.st0{fill:#C0C5C9;}
</style>
<g>
	<path class="st0" d="M255.9,183.9c-39.7,0-72,32.3-72,72s32.3,72,72,72s72-32.3,72-72S295.6,183.9,255.9,183.9z"/>
	<path class="st0" d="M423.4,0H88.5C39.7,0,0,39.7,0,88.5v335C0,472.3,39.7,512,88.5,512h335c48.8,0,88.5-39.7,88.5-88.5v-335
		C511.8,39.7,472.1,0,423.4,0z M255.9,403.8c-81.5,0-147.9-66.2-147.9-147.9S174.2,108,255.9,108s147.9,66.2,147.9,147.9
		S337.4,403.8,255.9,403.8z M458,90.6c0,20.3-16.4,36.6-36.6,36.6l0,0c-20.3,0-36.6-16.4-36.6-36.6l0,0c0-20.3,16.4-36.6,36.6-36.6
		l0,0C441.6,53.9,458,70.3,458,90.6L458,90.6z"/>
</g>
</svg>
